<svg width="33" height="32" viewBox="0 0 33 32" fill="none" xmlns="http://www.w3.org/2000/svg">
<path d="M27.1663 17.3333C27.1663 23.9999 22.4997 27.3333 16.953 29.2666C16.6626 29.365 16.3471 29.3603 16.0597 29.2533C10.4997 27.3333 5.83301 23.9999 5.83301 17.3333V7.99995C5.83301 7.64633 5.97348 7.30719 6.22353 7.05714C6.47358 6.80709 6.81272 6.66662 7.16634 6.66662C9.83301 6.66662 13.1663 5.06662 15.4863 3.03995C15.7688 2.79861 16.1281 2.66602 16.4997 2.66602C16.8712 2.66602 17.2305 2.79861 17.513 3.03995C19.8463 5.07995 23.1663 6.66662 25.833 6.66662C26.1866 6.66662 26.5258 6.80709 26.7758 7.05714C27.0259 7.30719 27.1663 7.64633 27.1663 7.99995V17.3333Z" stroke="#2563EB" stroke-width="2" stroke-linecap="round" stroke-linejoin="round"/>
</svg>
