<svg width="22" height="22" viewBox="0 0 22 22" fill="none" xmlns="http://www.w3.org/2000/svg">
<path d="M17.2354 12.5989C18.5197 11.3405 19.8212 9.83218 19.8212 7.85841C19.8212 6.60116 19.3217 5.39539 18.4327 4.50638C17.5437 3.61736 16.3379 3.11792 15.0807 3.11792C13.5637 3.11792 12.4949 3.54887 11.2021 4.84174C9.90923 3.54887 8.84046 3.11792 7.3235 3.11792C6.06624 3.11792 4.86048 3.61736 3.97147 4.50638C3.08245 5.39539 2.58301 6.60116 2.58301 7.85841C2.58301 9.8408 3.87587 11.3491 5.16873 12.5989L11.2021 18.6323L17.2354 12.5989Z" stroke="#0F766E" stroke-width="2" stroke-linecap="round" stroke-linejoin="round"/>
<path d="M3.63477 10.8751H9.04755L9.4785 10.0132L11.2023 13.8918L12.9261 7.8584L14.219 10.8751H18.7613" stroke="#0F766E" stroke-width="2" stroke-linecap="round" stroke-linejoin="round"/>
</svg>
