<svg width="28" height="28" viewBox="0 0 28 28" fill="none" xmlns="http://www.w3.org/2000/svg">
<path d="M25.6663 14.0002H22.773C22.2631 13.9991 21.7669 14.165 21.3603 14.4726C20.9537 14.7802 20.659 15.2126 20.5213 15.7035L17.7797 25.4568C17.762 25.5174 17.7252 25.5706 17.6747 25.6085C17.6242 25.6464 17.5628 25.6668 17.4997 25.6668C17.4366 25.6668 17.3752 25.6464 17.3247 25.6085C17.2742 25.5706 17.2373 25.5174 17.2197 25.4568L10.7797 2.5435C10.762 2.48291 10.7252 2.42969 10.6747 2.39183C10.6242 2.35396 10.5628 2.3335 10.4997 2.3335C10.4366 2.3335 10.3752 2.35396 10.3247 2.39183C10.2742 2.42969 10.2373 2.48291 10.2197 2.5435L7.47801 12.2968C7.34088 12.7858 7.04795 13.2168 6.64368 13.5242C6.23941 13.8316 5.74588 13.9987 5.23801 14.0002H2.33301" stroke="#143829" stroke-width="2" stroke-linecap="round" stroke-linejoin="round"/>
</svg>
