<svg width="29" height="28" viewBox="0 0 29 28" fill="none" xmlns="http://www.w3.org/2000/svg">
<path d="M17.9997 2.3335H10.9997C10.3553 2.3335 9.83301 2.85583 9.83301 3.50016V5.8335C9.83301 6.47783 10.3553 7.00016 10.9997 7.00016H17.9997C18.644 7.00016 19.1663 6.47783 19.1663 5.8335V3.50016C19.1663 2.85583 18.644 2.3335 17.9997 2.3335Z" stroke="#143829" stroke-width="2" stroke-linecap="round" stroke-linejoin="round"/>
<path d="M19.167 4.6665H21.5003C22.1192 4.6665 22.7127 4.91234 23.1502 5.34992C23.5878 5.78751 23.8337 6.381 23.8337 6.99984V23.3332C23.8337 23.952 23.5878 24.5455 23.1502 24.9831C22.7127 25.4207 22.1192 25.6665 21.5003 25.6665H7.50033C6.88149 25.6665 6.28799 25.4207 5.85041 24.9831C5.41282 24.5455 5.16699 23.952 5.16699 23.3332V6.99984C5.16699 6.381 5.41282 5.78751 5.85041 5.34992C6.28799 4.91234 6.88149 4.6665 7.50033 4.6665H9.83366" stroke="#143829" stroke-width="2" stroke-linecap="round" stroke-linejoin="round"/>
<path d="M11 16.3333L13.3333 18.6667L18 14" stroke="#143829" stroke-width="2" stroke-linecap="round" stroke-linejoin="round"/>
</svg>
