<svg width="49" height="48" viewBox="0 0 49 48" fill="none" xmlns="http://www.w3.org/2000/svg">
<path d="M32.1562 42V38C32.1562 35.8783 31.3134 33.8434 29.8131 32.3431C28.3128 30.8429 26.278 30 24.1562 30H12.1562C10.0345 30 7.99969 30.8429 6.4994 32.3431C4.9991 33.8434 4.15625 35.8783 4.15625 38V42" stroke="#2563EB" stroke-width="2" stroke-linecap="round" stroke-linejoin="round"/>
<path d="M18.1562 22C22.5745 22 26.1562 18.4183 26.1562 14C26.1562 9.58172 22.5745 6 18.1562 6C13.738 6 10.1562 9.58172 10.1562 14C10.1562 18.4183 13.738 22 18.1562 22Z" stroke="#2563EB" stroke-width="2" stroke-linecap="round" stroke-linejoin="round"/>
<path d="M44.1562 41.9998V37.9998C44.1549 36.2272 43.565 34.5053 42.479 33.1044C41.393 31.7035 39.8725 30.7029 38.1562 30.2598" stroke="#2563EB" stroke-width="2" stroke-linecap="round" stroke-linejoin="round"/>
<path d="M32.1562 6.25977C33.8771 6.70037 35.4023 7.70117 36.4915 9.10439C37.5807 10.5076 38.1719 12.2334 38.1719 14.0098C38.1719 15.7861 37.5807 17.5119 36.4915 18.9151C35.4023 20.3184 33.8771 21.3192 32.1562 21.7598" stroke="#2563EB" stroke-width="2" stroke-linecap="round" stroke-linejoin="round"/>
</svg>
