<svg width="22" height="22" viewBox="0 0 22 22" fill="none" xmlns="http://www.w3.org/2000/svg">
<path d="M19.6376 11.0422H17.5C17.1234 11.0414 16.7568 11.164 16.4564 11.3912C16.156 11.6185 15.9383 11.9379 15.8366 12.3006L13.8111 19.5061C13.798 19.5509 13.7708 19.5902 13.7335 19.6182C13.6962 19.6461 13.6508 19.6613 13.6042 19.6613C13.5576 19.6613 13.5122 19.6461 13.4749 19.6182C13.4376 19.5902 13.4104 19.5509 13.3974 19.5061L8.63963 2.57824C8.62657 2.53348 8.59935 2.49416 8.56206 2.46619C8.52476 2.43822 8.47939 2.4231 8.43277 2.4231C8.38615 2.4231 8.34078 2.43822 8.30348 2.46619C8.26619 2.49416 8.23897 2.53348 8.22591 2.57824L6.20043 9.78379C6.09912 10.1451 5.88271 10.4634 5.58405 10.6905C5.28538 10.9176 4.92077 11.0411 4.54556 11.0422H2.39941" stroke="#0F766E" stroke-width="2" stroke-linecap="round" stroke-linejoin="round"/>
</svg>
