<svg width="49" height="48" viewBox="0 0 49 48" fill="none" xmlns="http://www.w3.org/2000/svg">
<path d="M40.4922 25.9999C40.4922 35.9999 33.4922 40.9999 25.1722 43.8999C24.7365 44.0476 24.2633 44.0405 23.8322 43.8799C15.4922 40.9999 8.49219 35.9999 8.49219 25.9999V11.9999C8.49219 11.4695 8.7029 10.9608 9.07797 10.5857C9.45305 10.2106 9.96175 9.99992 10.4922 9.99992C14.4922 9.99992 19.4922 7.59992 22.9722 4.55992C23.3959 4.19792 23.9349 3.99902 24.4922 3.99902C25.0495 3.99902 25.5885 4.19792 26.0122 4.55992C29.5122 7.61992 34.4922 9.99992 38.4922 9.99992C39.0226 9.99992 39.5313 10.2106 39.9064 10.5857C40.2815 10.9608 40.4922 11.4695 40.4922 11.9999V25.9999Z" stroke="#2563EB" stroke-width="2" stroke-linecap="round" stroke-linejoin="round"/>
</svg>
