<svg width="49" height="48" viewBox="0 0 49 48" fill="none" xmlns="http://www.w3.org/2000/svg">
<path d="M20.8282 4V19.054C20.8287 19.676 20.6843 20.2896 20.4062 20.846L10.2682 41.1C10.114 41.406 10.041 41.7464 10.0562 42.0887C10.0714 42.431 10.1742 42.7637 10.3549 43.0548C10.5356 43.3459 10.7881 43.5857 11.0881 43.7512C11.3881 43.9167 11.7255 44.0024 12.0682 44H37.5882C37.9308 44.0024 38.2683 43.9167 38.5683 43.7512C38.8683 43.5857 39.1207 43.3459 39.3014 43.0548C39.4821 42.7637 39.585 42.431 39.6002 42.0887C39.6154 41.7464 39.5424 41.406 39.3882 41.1L29.2502 20.846C28.9721 20.2896 28.8276 19.676 28.8282 19.054V4" stroke="#2563EB" stroke-width="2" stroke-linecap="round" stroke-linejoin="round"/>
<path d="M17.8281 4H31.8281" stroke="#2563EB" stroke-width="2" stroke-linecap="round" stroke-linejoin="round"/>
<path d="M14.8281 32H34.8281" stroke="#2563EB" stroke-width="2" stroke-linecap="round" stroke-linejoin="round"/>
</svg>
