<svg width="29" height="28" viewBox="0 0 29 28" fill="none" xmlns="http://www.w3.org/2000/svg">
<path d="M14.4996 5.83355C14.501 5.36692 14.4091 4.90473 14.2292 4.47415C14.0493 4.04358 13.7852 3.65332 13.4523 3.32632C13.1194 2.99933 12.7245 2.74221 12.2907 2.57007C11.857 2.39794 11.3932 2.31428 10.9267 2.324C10.4602 2.33373 10.0003 2.43664 9.57413 2.6267C9.14796 2.81675 8.76409 3.09011 8.44511 3.43069C8.12612 3.77127 7.87847 4.1722 7.7167 4.6099C7.55493 5.04759 7.48232 5.51322 7.50314 5.97939C6.81737 6.15571 6.18072 6.48578 5.64141 6.94459C5.10209 7.40339 4.67425 7.97891 4.39029 8.62754C4.10633 9.27618 3.97369 9.98093 4.00243 10.6884C4.03116 11.3959 4.22051 12.0876 4.55614 12.7111C3.96602 13.1905 3.50197 13.8068 3.20437 14.5065C2.90677 15.2061 2.78462 15.9679 2.84856 16.7255C2.9125 17.4832 3.16059 18.2137 3.57125 18.8536C3.9819 19.4935 4.54268 20.0233 5.20481 20.3971C5.12304 21.0297 5.17184 21.6723 5.34817 22.2853C5.52451 22.8983 5.82465 23.4687 6.23005 23.9612C6.63546 24.4536 7.13752 24.8578 7.70523 25.1486C8.27294 25.4394 8.89425 25.6108 9.53078 25.6521C10.1673 25.6934 10.8056 25.6038 11.4061 25.3888C12.0066 25.1737 12.5567 24.8379 13.0224 24.4019C13.488 23.966 13.8593 23.4392 14.1134 22.8541C14.3675 22.2691 14.499 21.6381 14.4996 21.0002V5.83355Z" stroke="#143829" stroke-width="2" stroke-linecap="round" stroke-linejoin="round"/>
<path d="M14.5 5.83355C14.4986 5.36692 14.5906 4.90473 14.7705 4.47415C14.9503 4.04358 15.2145 3.65332 15.5474 3.32632C15.8803 2.99933 16.2752 2.74221 16.7089 2.57007C17.1426 2.39794 17.6064 2.31428 18.0729 2.324C18.5395 2.33373 18.9993 2.43664 19.4255 2.6267C19.8517 2.81675 20.2356 3.09011 20.5545 3.43069C20.8735 3.77127 21.1212 4.1722 21.283 4.6099C21.4447 5.04759 21.5173 5.51322 21.4965 5.97939C22.1823 6.15571 22.8189 6.48578 23.3582 6.94459C23.8976 7.40339 24.3254 7.97891 24.6094 8.62754C24.8933 9.27618 25.026 9.98093 24.9972 10.6884C24.9685 11.3959 24.7791 12.0876 24.4435 12.7111C25.0336 13.1905 25.4977 13.8068 25.7953 14.5065C26.0929 15.2061 26.215 15.9679 26.1511 16.7255C26.0872 17.4832 25.8391 18.2137 25.4284 18.8536C25.0178 19.4935 24.457 20.0233 23.7948 20.3971C23.8766 21.0297 23.8278 21.6723 23.6515 22.2853C23.4751 22.8983 23.175 23.4687 22.7696 23.9612C22.3642 24.4536 21.8621 24.8578 21.2944 25.1486C20.7267 25.4394 20.1054 25.6108 19.4689 25.6521C18.8323 25.6934 18.1941 25.6038 17.5936 25.3888C16.993 25.1737 16.4429 24.8379 15.9773 24.4019C15.5116 23.966 15.1403 23.4392 14.8862 22.8541C14.6321 22.2691 14.5007 21.6381 14.5 21.0002V5.83355Z" stroke="#143829" stroke-width="2" stroke-linecap="round" stroke-linejoin="round"/>
<path d="M18 15.1667C17.0205 14.8221 16.1652 14.1948 15.5422 13.3642C14.9192 12.5335 14.5565 11.5368 14.5 10.5C14.4435 11.5368 14.0808 12.5335 13.4578 13.3642C12.8348 14.1948 11.9795 14.8221 11 15.1667" stroke="#143829" stroke-width="2" stroke-linecap="round" stroke-linejoin="round"/>
<path d="M21.0322 7.58317C21.3146 7.09385 21.4743 6.54346 21.4977 5.979" stroke="#143829" stroke-width="2" stroke-linecap="round" stroke-linejoin="round"/>
<path d="M7.50391 5.979C7.52698 6.54336 7.68629 7.09375 7.96824 7.58317" stroke="#143829" stroke-width="2" stroke-linecap="round" stroke-linejoin="round"/>
<path d="M4.55664 12.712C4.77007 12.5382 4.99846 12.3836 5.23914 12.25" stroke="#143829" stroke-width="2" stroke-linecap="round" stroke-linejoin="round"/>
<path d="M23.7607 12.25C24.0014 12.3836 24.2298 12.5382 24.4432 12.712" stroke="#143829" stroke-width="2" stroke-linecap="round" stroke-linejoin="round"/>
<path d="M7.49991 21C6.69588 21.0003 5.90539 20.793 5.20508 20.3979" stroke="#143829" stroke-width="2" stroke-linecap="round" stroke-linejoin="round"/>
<path d="M23.7948 20.3979C23.0945 20.793 22.304 21.0003 21.5 21" stroke="#143829" stroke-width="2" stroke-linecap="round" stroke-linejoin="round"/>
</svg>
