<svg width="21" height="20" viewBox="0 0 21 20" fill="none" xmlns="http://www.w3.org/2000/svg">
<path d="M13.833 6.66663C15.1591 6.66663 16.4309 7.19341 17.3685 8.13109C18.3062 9.06877 18.833 10.3405 18.833 11.6666V17.5H15.4997V11.6666C15.4997 11.2246 15.3241 10.8007 15.0115 10.4881C14.699 10.1756 14.275 9.99996 13.833 9.99996C13.391 9.99996 12.9671 10.1756 12.6545 10.4881C12.3419 10.8007 12.1663 11.2246 12.1663 11.6666V17.5H8.83301V11.6666C8.83301 10.3405 9.35979 9.06877 10.2975 8.13109C11.2352 7.19341 12.5069 6.66663 13.833 6.66663Z" stroke="#9CA3AF" stroke-width="2" stroke-linecap="round" stroke-linejoin="round"/>
<path d="M5.50033 7.5H2.16699V17.5H5.50033V7.5Z" stroke="#9CA3AF" stroke-width="2" stroke-linecap="round" stroke-linejoin="round"/>
<path d="M3.83366 4.99996C4.75413 4.99996 5.50033 4.25377 5.50033 3.33329C5.50033 2.41282 4.75413 1.66663 3.83366 1.66663C2.91318 1.66663 2.16699 2.41282 2.16699 3.33329C2.16699 4.25377 2.91318 4.99996 3.83366 4.99996Z" stroke="#9CA3AF" stroke-width="2" stroke-linecap="round" stroke-linejoin="round"/>
</svg>
